PathFileType	4	(X/Y/Z)	RBDS026\RBDS026runT35.trc
DataRate	CameraRate	NumFrames	NumMarkers	Units	OrigDataRate	OrigDataStartFrame	OrigNumFrames
150.000000	150.000000	4	33	mm	150.000000	1687	4500
Frame#	Time	L.ASIS			L.Heel.Bottom			L.Heel.Lateral			L.Heel.Top			L.Iliac.Crest			L.MT1			L.MT5			L.PSIS			L.Shank.Bottom.Lateral			L.Shank.Bottom.Medial			L.Shank.Top.Lateral			L.Shank.Top.Medial			L.Thigh.Bottom.Lateral			L.Thigh.Bottom.Medial			L.Thigh.Top.Lateral			L.Thigh.Top.Medial			R.ASIS			R.ASY			R.Heel.Bottom			R.Heel.Lateral			R.Heel.Top			R.Iliac.Crest			R.MT1			R.MT5			R.PSIS			R.Shank.Bottom.Lateral			R.Shank.Bottom.Medial			R.Shank.Top.Lateral			R.Shank.Top.Medial			R.Thigh.Bottom.Lateral			R.Thigh.Bottom.Medial			R.Thigh.Top.Lateral			R.Thigh.Top.Medial			
		X1	Y1	Z1	X2	Y2	Z2	X3	Y3	Z3	X4	Y4	Z4	X5	Y5	Z5	X6	Y6	Z6	X7	Y7	Z7	X8	Y8	Z8	X9	Y9	Z9	X10	Y10	Z10	X11	Y11	Z11	X12	Y12	Z12	X13	Y13	Z13	X14	Y14	Z14	X15	Y15	Z15	X16	Y16	Z16	X17	Y17	Z17	X18	Y18	Z18	X19	Y19	Z19	X20	Y20	Z20	X21	Y21	Z21	X22	Y22	Z22	X23	Y23	Z23	X24	Y24	Z24	X25	Y25	Z25	X26	Y26	Z26	X27	Y27	Z27	X28	Y28	Z28	X29	Y29	Z29	X30	Y30	Z30	X31	Y31	Z31	X32	Y32	Z32	X33	Y33	Z33	

1688	11.24666666666667	2203.466199502395	994.3598295252676	906.8822891892449	2097.884812525688	29.25239125975891	1035.686366805729	2125.969491166796	48.10628392457399	984.4093901942389	2109.740288515522	75.84719926401065	1034.979412876909	2117.627524715062	1062.685189752602	862.1131079050814	2328.643815286306	43.66763468206491	1040.506519929098	2272.779288909246	38.78725499631651	938.0443601739909	2029.332253610739	1033.561974921229	983.6390248010351	2200.715940097673	152.0566843453359	952.6519072148761	2155.645703224258	168.2229529916075	970.8401469989543	2217.160537197924	223.9557209073398	919.253036717677	2171.027359594227	243.9805660610929	936.2575084332422	2231.864194685425	605.6812297150116	862.1990931689609	2174.017709823662	584.6641415290485	900.6303119076123	2181.606586792435	701.4443686143142	839.3273522530585	2128.271113220181	682.0100414263206	878.6166225546543	2200.038738200977	972.7495011788736	1140.945763838503	1631.124921294114	376.2204496865331	1077.61505740454	1647.813495646159	555.7563968077482	1011.780489977621	1647.797962335552	533.8465381022166	1066.608685845683	1686.028506925013	533.430005591713	1023.415889748243	2159.717552113403	1048.034503386591	1182.206458565873	1584.793409289736	339.3663553440334	1030.466391497128	1571.695934008683	399.2901287992506	1123.275807507097	2033.308874235091	1027.173348939704	1082.87067179049	1738.010089831757	476.9183283172946	1117.420454855484	1745.833493129359	515.8809669743115	1079.328720474613	1813.816699514728	490.5307289772107	1144.477692214284	1820.65192606596	527.4518289322824	1106.411127598512	2100.235585344409	550.2557193110719	1212.56778724678	2040.329501127373	553.0328434067217	1173.359423209688	2100.699523324458	660.7987347762956	1219.378213311491	2040.432912832084	662.5398396504326	1186.873344856493	
1689	11.25333333333333	2201.731862377475	991.1431593314659	905.9545546799312	2074.758337730141	30.0079525130067	1035.720380953128	2102.968273928094	49.14986516827025	984.5226901954273	2086.822918490999	76.63791705138775	1035.229655618783	2115.64827994634	1058.208877808678	861.4449541277778	2305.491971524923	43.95077888741339	1040.75821032282	2249.642007251151	39.59000074183686	938.4500602607943	2027.568166470963	1030.529351138549	983.8660336102588	2181.941935163263	151.8246952802908	953.1309517099546	2137.343564560683	169.8783212869691	970.7379498188409	2201.731169199526	222.9712934146321	919.7162398149926	2156.187130089447	244.9176182608452	936.1383960819776	2227.472744026089	601.6605508563307	862.4628141643599	2169.865642441829	581.3392988151739	901.6692796452908	2177.790059989496	697.7167966248776	839.4869872900889	2124.569688964961	678.8474791738025	879.2621293100552	2197.998033876289	968.4585508776232	1140.695076294684	1646.267761122939	375.9425029195612	1082.362222692557	1661.01166528667	555.5550967816858	1016.733589161187	1662.33409073439	533.7224898429002	1071.639591206325	1699.481920177588	533.2498064547517	1027.636367165702	2156.115056455424	1043.851781442135	1182.098154374137	1598.81785734184	339.1007288021452	1036.267867041217	1587.784713941888	398.8160614129066	1129.580463178538	2031.115960995897	1023.511033921438	1082.547587021963	1753.296063183858	476.3621107812376	1121.024034024252	1761.084955002568	515.1261862680516	1082.753900769545	1829.635843468996	489.1956909927177	1147.046066223055	1836.493235251339	525.795882509981	1108.658630234422	2112.171676800861	546.6948476792021	1212.756380654957	2051.724743028067	547.3900102442446	1174.226005493686	2109.108431139281	657.1906712214233	1219.521697849704	2048.249282490313	656.8369043044514	1187.911039036069	
1690	11.26	2200.111093131454	988.3510675898222	905.1283034918883	2051.654217089892	30.54858894365421	1035.679837029398	2079.90063253227	49.91585584874531	984.496753302556	2063.763527027046	77.21259956662685	1035.268356547065	2113.603746761028	1054.541593600988	860.8140896687303	2282.163343560708	44.6644771983467	1040.707683546666	2226.420510338233	40.28631699583389	938.6624086077904	2025.971064308639	1028.196660839781	983.888501741994	2162.436654360741	151.547595447094	953.3172145893641	2118.407240439227	171.3054569353856	970.4907565926336	2185.228763739747	221.8918312377205	919.9814460135876	2140.343980342028	245.5705573070024	935.9695565668655	2221.89284939895	597.6475086409748	862.7447713770404	2164.329351041714	578.2324863730527	902.5307134534964	2173.29702641105	694.2304909779546	839.7179775305844	2120.038242939965	676.1465136412586	879.8879918989054	2195.866859504353	965.2830900339683	1140.712321202708	1662.199808599386	374.4275171549188	1087.09175835281	1673.704749284319	554.2380024684643	1021.864118242887	1676.590963186226	532.4551551911957	1076.772659226883	1712.583982569922	532.2024685760498	1031.948691861114	2151.83598998426	1040.896557267454	1181.933704225121	1613.895267873456	337.3252853699458	1042.021124785085	1604.567829919717	396.657130755816	1135.891039123012	2029.02530490415	1020.741501828699	1082.049695730708	1768.752127829051	475.1549210051293	1124.601003099415	1776.233156722246	513.84588285681	1086.217950222703	1845.517548036477	487.6440963884181	1149.580400156645	1852.115355398215	524.0568051375124	1110.95448180996	2124.415570736979	544.3892130443824	1212.670890175347	2063.531884728198	542.9512239840627	1174.766696461932	2117.701237486747	654.6942800012508	1219.470375468446	2056.37530462141	652.1944517996153	1188.682958465043	
1691	11.26666666666667	2198.655814446738	985.9624463130782	904.4225409228555	2028.516446818637	30.90776974597615	1035.600690826661	2056.731907789269	50.43416928467306	984.3827515000079	2040.574468689901	77.60495735205002	1035.168313398576	2111.592532219147	1051.708195680795	860.2343715300086	2258.712034938755	45.51424435568143	1040.437606604065	2203.099808264444	40.77131200653368	938.7215324182033	2024.580576842971	1026.563607397292	983.6932086970565	2142.270414805726	151.1866964764012	953.2945348321418	2098.876025884065	172.4630301611919	970.1699109938248	2167.72124749153	220.706375227477	920.1040334879526	2123.535411728045	245.9254892201641	935.7906137293218	2215.134764035836	593.721769811337	863.016595525674	2157.41425614737	575.3984396916024	903.158558586988	2168.119890972291	691.0456646432345	839.9976965295341	2114.678464821667	673.9480694871041	880.4605555801562	2193.730253411255	963.2946148642568	1141.005252946239	1678.796941173588	371.7002603221954	1091.733468211237	1685.829981986793	551.7638981961558	1027.087244741412	1690.467199511572	530.0300942971286	1081.912595623484	1725.263508986673	530.256472133641	1036.285703737929	2147.088022085191	1039.143817616176	1181.724102791618	1629.938714289815	334.0431171532221	1047.644356748543	1621.921665824135	392.8679663945339	1142.10551963907	2027.098305188018	1018.869989382004	1081.396371355677	1784.248927713036	473.2739810082319	1128.089048820888	1791.154167293822	512.038038009141	1089.681515442305	1861.322783731689	485.8711165469564	1152.054024141592	1867.381076165007	522.255360388806	1113.302509071352	2136.864716657752	543.3705945335809	1212.309271309681	2075.660401679882	539.7647109010069	1174.975509742364	2126.396288002225	653.3347713509933	1219.238483243583	2064.742501320637	648.655385712006	1189.190239479536	
